<svg xmlns="http://www.w3.org/2000/svg" width="90" height="28.815915968844557" viewBox="0 0 90 28.815915968844557" class="css-1j8o68f"><defs id="SvgjsDefs1001"><linearGradient id="SvgjsLinearGradient1011"><stop id="SvgjsStop1012" stop-color="#2d388a" offset="0"></stop><stop id="SvgjsStop1013" stop-color="#00aeef" offset="1"></stop></linearGradient></defs><g id="SvgjsG1007" featurekey="symbolFeature-0" transform="matrix(0.31805647300397594,0,0,0.31805647300397594,-4.675431609105436,-33.30051417946327)" fill="url(#SvgjsLinearGradient1011)"><path xmlns="http://www.w3.org/2000/svg" d="M240,105c-8.2,0-15.9,2.2-22.5,6c-6.6-3.8-14.3-6-22.5-6s-15.9,2.2-22.5,6c-6.6-3.8-14.3-6-22.5-6s-15.9,2.2-22.5,6  c-6.6-3.8-14.3-6-22.5-6c-8.1,0-15.7,2.1-22.2,5.9c-6.7-3.9-14.5-6.2-22.8-6.2c-25,0-45.3,20.3-45.3,45.3S35,195.3,60,195.3  c8.3,0,16.1-2.3,22.8-6.2c6.6,3.7,14.1,5.9,22.2,5.9c8.2,0,15.9-2.2,22.5-6c6.6,3.8,14.3,6,22.5,6s15.9-2.2,22.5-6  c6.6,3.8,14.3,6,22.5,6s15.9-2.2,22.5-6c6.6,3.8,14.3,6,22.5,6c24.9,0,45-20.1,45-45S264.9,105,240,105z M105,106.1  c7.8,0,15,2,21.4,5.6c-11.9,7.4-20.1,20.1-21.2,34.9c-1.1-14.8-9.3-27.6-21.3-35.1C90.2,108.1,97.4,106.1,105,106.1z M60,194.7  c-24.7,0-44.7-20.1-44.7-44.7s20.1-44.7,44.7-44.7c8.1,0,15.7,2.2,22.2,5.9C68.9,119,60,133.5,60,150s8.9,31,22.2,38.8  C75.7,192.6,68.1,194.7,60,194.7z M61.1,150c0-16.3,9-30.6,22.2-38.1c12.8,7.9,21.4,22,21.4,38.1s-8.6,30.3-21.4,38.1  C70.1,180.6,61.1,166.3,61.1,150z M105,193.9c-7.7,0-14.9-2-21.1-5.4c11.9-7.4,20.2-20.3,21.3-35.1c1.1,14.8,9.3,27.5,21.2,34.9  C120.1,191.8,112.8,193.9,105,193.9z M107.3,150c0-15.8,8.6-29.6,21.3-37c12.2,7.8,20.3,21.5,20.3,37s-8.1,29.2-20.3,37  C115.8,179.6,107.3,165.8,107.3,150z M150,192.8c-7.3,0-14.3-1.9-20.3-5.1c12.2-8,20.3-21.9,20.3-37.6s-8.1-29.6-20.3-37.6  c6-3.3,13-5.1,20.3-5.1s14.3,1.9,20.3,5.1c-12.2,8-20.3,21.9-20.3,37.6s8.1,29.6,20.3,37.6C164.3,190.9,157.4,192.8,150,192.8z   M154.5,150c0-14.9,8.1-27.9,20.1-35c11,7.7,18.2,20.5,18.2,35s-7.2,27.2-18.2,35C162.6,177.9,154.5,164.9,154.5,150z M195,190.5  c-6.6,0-12.7-1.6-18.2-4.4c11-8.1,18.2-21.3,18.2-36.1s-7.2-28-18.2-36.2c5.5-2.8,11.7-4.4,18.2-4.4s12.7,1.6,18.2,4.4  c-11,8.2-18.2,21.4-18.2,36.2s7.2,28,18.2,36.2C207.8,188.9,201.6,190.5,195,190.5z"></path></g></svg>